<mxfile host="app.diagrams.net" modified="2023-03-16T21:08:16.844Z" agent="5.0 (X11; Linux x86_64) AppleWebKit/537.36 (KHTML, like Gecko) Chrome/110.0.0.0 Safari/537.36" etag="x4h23K-zLAt9HZE1_V0M" version="21.0.6" type="github">
  <diagram name="Page-1" id="w6vay4CM0imPE2UAvKqg">
    <mxGraphModel dx="2646" dy="2061" grid="1" gridSize="10" guides="1" tooltips="1" connect="1" arrows="1" fold="1" page="1" pageScale="1" pageWidth="850" pageHeight="1100" math="0" shadow="0">
      <root>
        <mxCell id="0" />
        <mxCell id="1" parent="0" />
        <mxCell id="r-d_q9eVbDzV2q1Ur8VG-5" value="FoodItem" style="swimlane;fontStyle=1;align=center;verticalAlign=top;childLayout=stackLayout;horizontal=1;startSize=26;horizontalStack=0;resizeParent=1;resizeParentMax=0;resizeLast=0;collapsible=1;marginBottom=0;whiteSpace=wrap;html=1;" vertex="1" parent="1">
          <mxGeometry x="-30" y="-910" width="290" height="400" as="geometry" />
        </mxCell>
        <mxCell id="r-d_q9eVbDzV2q1Ur8VG-6" value="- itemID: int" style="text;strokeColor=none;fillColor=none;align=left;verticalAlign=top;spacingLeft=4;spacingRight=4;overflow=hidden;rotatable=0;points=[[0,0.5],[1,0.5]];portConstraint=eastwest;whiteSpace=wrap;html=1;" vertex="1" parent="r-d_q9eVbDzV2q1Ur8VG-5">
          <mxGeometry y="26" width="290" height="26" as="geometry" />
        </mxCell>
        <mxCell id="r-d_q9eVbDzV2q1Ur8VG-9" value="- name: String" style="text;strokeColor=none;fillColor=none;align=left;verticalAlign=top;spacingLeft=4;spacingRight=4;overflow=hidden;rotatable=0;points=[[0,0.5],[1,0.5]];portConstraint=eastwest;whiteSpace=wrap;html=1;" vertex="1" parent="r-d_q9eVbDzV2q1Ur8VG-5">
          <mxGeometry y="52" width="290" height="26" as="geometry" />
        </mxCell>
        <mxCell id="r-d_q9eVbDzV2q1Ur8VG-10" value="- nutrientContent: HashSet&amp;lt;int&amp;gt;" style="text;strokeColor=none;fillColor=none;align=left;verticalAlign=top;spacingLeft=4;spacingRight=4;overflow=hidden;rotatable=0;points=[[0,0.5],[1,0.5]];portConstraint=eastwest;whiteSpace=wrap;html=1;" vertex="1" parent="r-d_q9eVbDzV2q1Ur8VG-5">
          <mxGeometry y="78" width="290" height="26" as="geometry" />
        </mxCell>
        <mxCell id="r-d_q9eVbDzV2q1Ur8VG-11" value="- calories: int" style="text;strokeColor=none;fillColor=none;align=left;verticalAlign=top;spacingLeft=4;spacingRight=4;overflow=hidden;rotatable=0;points=[[0,0.5],[1,0.5]];portConstraint=eastwest;whiteSpace=wrap;html=1;" vertex="1" parent="r-d_q9eVbDzV2q1Ur8VG-5">
          <mxGeometry y="104" width="290" height="26" as="geometry" />
        </mxCell>
        <mxCell id="r-d_q9eVbDzV2q1Ur8VG-7" value="" style="line;strokeWidth=1;fillColor=none;align=left;verticalAlign=middle;spacingTop=-1;spacingLeft=3;spacingRight=3;rotatable=0;labelPosition=right;points=[];portConstraint=eastwest;strokeColor=inherit;" vertex="1" parent="r-d_q9eVbDzV2q1Ur8VG-5">
          <mxGeometry y="130" width="290" height="8" as="geometry" />
        </mxCell>
        <mxCell id="r-d_q9eVbDzV2q1Ur8VG-8" value="+ FoodItem(int itemID, String name, int calories, HashSet&amp;lt;int&amp;gt; nutrientContent)" style="text;strokeColor=none;fillColor=none;align=left;verticalAlign=top;spacingLeft=4;spacingRight=4;overflow=hidden;rotatable=0;points=[[0,0.5],[1,0.5]];portConstraint=eastwest;whiteSpace=wrap;html=1;" vertex="1" parent="r-d_q9eVbDzV2q1Ur8VG-5">
          <mxGeometry y="138" width="290" height="52" as="geometry" />
        </mxCell>
        <mxCell id="r-d_q9eVbDzV2q1Ur8VG-12" value="+ calculateTotalRequirementsCeiling(int[] clientIDs)" style="text;strokeColor=none;fillColor=none;align=left;verticalAlign=top;spacingLeft=4;spacingRight=4;overflow=hidden;rotatable=0;points=[[0,0.5],[1,0.5]];portConstraint=eastwest;whiteSpace=wrap;html=1;" vertex="1" parent="r-d_q9eVbDzV2q1Ur8VG-5">
          <mxGeometry y="190" width="290" height="30" as="geometry" />
        </mxCell>
        <mxCell id="r-d_q9eVbDzV2q1Ur8VG-13" value="+ findOptimalHamper(AvailableFood availableFood): AvailableFood" style="text;strokeColor=none;fillColor=none;align=left;verticalAlign=top;spacingLeft=4;spacingRight=4;overflow=hidden;rotatable=0;points=[[0,0.5],[1,0.5]];portConstraint=eastwest;whiteSpace=wrap;html=1;" vertex="1" parent="r-d_q9eVbDzV2q1Ur8VG-5">
          <mxGeometry y="220" width="290" height="40" as="geometry" />
        </mxCell>
        <mxCell id="r-d_q9eVbDzV2q1Ur8VG-14" value="+ setHamperContents()" style="text;strokeColor=none;fillColor=none;align=left;verticalAlign=top;spacingLeft=4;spacingRight=4;overflow=hidden;rotatable=0;points=[[0,0.5],[1,0.5]];portConstraint=eastwest;whiteSpace=wrap;html=1;" vertex="1" parent="r-d_q9eVbDzV2q1Ur8VG-5">
          <mxGeometry y="260" width="290" height="30" as="geometry" />
        </mxCell>
        <mxCell id="r-d_q9eVbDzV2q1Ur8VG-15" value="+ getHamperContents(): AvailableFood" style="text;strokeColor=none;fillColor=none;align=left;verticalAlign=top;spacingLeft=4;spacingRight=4;overflow=hidden;rotatable=0;points=[[0,0.5],[1,0.5]];portConstraint=eastwest;whiteSpace=wrap;html=1;" vertex="1" parent="r-d_q9eVbDzV2q1Ur8VG-5">
          <mxGeometry y="290" width="290" height="30" as="geometry" />
        </mxCell>
        <mxCell id="r-d_q9eVbDzV2q1Ur8VG-16" value="+ getTotalWeeklyCalorieRequirementsByType(): HashSet&amp;lt;int&amp;gt;" style="text;strokeColor=none;fillColor=none;align=left;verticalAlign=top;spacingLeft=4;spacingRight=4;overflow=hidden;rotatable=0;points=[[0,0.5],[1,0.5]];portConstraint=eastwest;whiteSpace=wrap;html=1;" vertex="1" parent="r-d_q9eVbDzV2q1Ur8VG-5">
          <mxGeometry y="320" width="290" height="40" as="geometry" />
        </mxCell>
        <mxCell id="r-d_q9eVbDzV2q1Ur8VG-17" value="+ getShortFall(): ArrayList&amp;lt;String&amp;gt;" style="text;strokeColor=none;fillColor=none;align=left;verticalAlign=top;spacingLeft=4;spacingRight=4;overflow=hidden;rotatable=0;points=[[0,0.5],[1,0.5]];portConstraint=eastwest;whiteSpace=wrap;html=1;" vertex="1" parent="r-d_q9eVbDzV2q1Ur8VG-5">
          <mxGeometry y="360" width="290" height="40" as="geometry" />
        </mxCell>
        <mxCell id="5vHbgtkAKjBmpQbh6Rdm-1" value="ShortfallException" style="swimlane;fontStyle=0;childLayout=stackLayout;horizontal=1;startSize=26;fillColor=none;horizontalStack=0;resizeParent=1;resizeParentMax=0;resizeLast=0;collapsible=1;marginBottom=0;whiteSpace=wrap;html=1;" vertex="1" parent="1">
          <mxGeometry x="-610" y="-486" width="340" height="66" as="geometry" />
        </mxCell>
        <mxCell id="5vHbgtkAKjBmpQbh6Rdm-5" value="ShortfallException()&lt;br/&gt;&lt;br/&gt;" style="text;html=1;align=center;verticalAlign=middle;resizable=0;points=[];autosize=1;strokeColor=none;fillColor=none;" vertex="1" parent="5vHbgtkAKjBmpQbh6Rdm-1">
          <mxGeometry y="26" width="340" height="40" as="geometry" />
        </mxCell>
        <mxCell id="r-d_q9eVbDzV2q1Ur8VG-18" value="Person" style="swimlane;fontStyle=1;align=center;verticalAlign=top;childLayout=stackLayout;horizontal=1;startSize=26;horizontalStack=0;resizeParent=1;resizeParentMax=0;resizeLast=0;collapsible=1;marginBottom=0;whiteSpace=wrap;html=1;" vertex="1" parent="1">
          <mxGeometry x="150" y="-420" width="290" height="240" as="geometry" />
        </mxCell>
        <mxCell id="r-d_q9eVbDzV2q1Ur8VG-19" value="- weeklyRequirementsByType: HashSet&amp;lt;float&amp;gt;" style="text;strokeColor=none;fillColor=none;align=left;verticalAlign=top;spacingLeft=4;spacingRight=4;overflow=hidden;rotatable=0;points=[[0,0.5],[1,0.5]];portConstraint=eastwest;whiteSpace=wrap;html=1;" vertex="1" parent="r-d_q9eVbDzV2q1Ur8VG-18">
          <mxGeometry y="26" width="290" height="26" as="geometry" />
        </mxCell>
        <mxCell id="r-d_q9eVbDzV2q1Ur8VG-22" value="- clientID:int" style="text;strokeColor=none;fillColor=none;align=left;verticalAlign=top;spacingLeft=4;spacingRight=4;overflow=hidden;rotatable=0;points=[[0,0.5],[1,0.5]];portConstraint=eastwest;whiteSpace=wrap;html=1;" vertex="1" parent="r-d_q9eVbDzV2q1Ur8VG-18">
          <mxGeometry y="52" width="290" height="26" as="geometry" />
        </mxCell>
        <mxCell id="r-d_q9eVbDzV2q1Ur8VG-23" value="- client: String" style="text;strokeColor=none;fillColor=none;align=left;verticalAlign=top;spacingLeft=4;spacingRight=4;overflow=hidden;rotatable=0;points=[[0,0.5],[1,0.5]];portConstraint=eastwest;whiteSpace=wrap;html=1;" vertex="1" parent="r-d_q9eVbDzV2q1Ur8VG-18">
          <mxGeometry y="78" width="290" height="26" as="geometry" />
        </mxCell>
        <mxCell id="r-d_q9eVbDzV2q1Ur8VG-20" value="" style="line;strokeWidth=1;fillColor=none;align=left;verticalAlign=middle;spacingTop=-1;spacingLeft=3;spacingRight=3;rotatable=0;labelPosition=right;points=[];portConstraint=eastwest;strokeColor=inherit;" vertex="1" parent="r-d_q9eVbDzV2q1Ur8VG-18">
          <mxGeometry y="104" width="290" height="8" as="geometry" />
        </mxCell>
        <mxCell id="r-d_q9eVbDzV2q1Ur8VG-21" value="+ Person(int clientID, String client, HashSet&amp;lt;String[] requirementsByType): HashSet&amp;lt;float&amp;gt;" style="text;strokeColor=none;fillColor=none;align=left;verticalAlign=top;spacingLeft=4;spacingRight=4;overflow=hidden;rotatable=0;points=[[0,0.5],[1,0.5]];portConstraint=eastwest;whiteSpace=wrap;html=1;" vertex="1" parent="r-d_q9eVbDzV2q1Ur8VG-18">
          <mxGeometry y="112" width="290" height="38" as="geometry" />
        </mxCell>
        <mxCell id="r-d_q9eVbDzV2q1Ur8VG-24" value="+ getWeeklyRequirementsByType(): HashSet&amp;lt;float&amp;gt;" style="text;strokeColor=none;fillColor=none;align=left;verticalAlign=top;spacingLeft=4;spacingRight=4;overflow=hidden;rotatable=0;points=[[0,0.5],[1,0.5]];portConstraint=eastwest;whiteSpace=wrap;html=1;" vertex="1" parent="r-d_q9eVbDzV2q1Ur8VG-18">
          <mxGeometry y="150" width="290" height="30" as="geometry" />
        </mxCell>
        <mxCell id="r-d_q9eVbDzV2q1Ur8VG-25" value="+ getClientID(): int" style="text;strokeColor=none;fillColor=none;align=left;verticalAlign=top;spacingLeft=4;spacingRight=4;overflow=hidden;rotatable=0;points=[[0,0.5],[1,0.5]];portConstraint=eastwest;whiteSpace=wrap;html=1;" vertex="1" parent="r-d_q9eVbDzV2q1Ur8VG-18">
          <mxGeometry y="180" width="290" height="30" as="geometry" />
        </mxCell>
        <mxCell id="r-d_q9eVbDzV2q1Ur8VG-26" value="+ getClient(): String" style="text;strokeColor=none;fillColor=none;align=left;verticalAlign=top;spacingLeft=4;spacingRight=4;overflow=hidden;rotatable=0;points=[[0,0.5],[1,0.5]];portConstraint=eastwest;whiteSpace=wrap;html=1;" vertex="1" parent="r-d_q9eVbDzV2q1Ur8VG-18">
          <mxGeometry y="210" width="290" height="30" as="geometry" />
        </mxCell>
        <mxCell id="CjihOQv_C-0zfXQnCnq9-9" value="Hamper" style="swimlane;fontStyle=1;align=center;verticalAlign=top;childLayout=stackLayout;horizontal=1;startSize=26;horizontalStack=0;resizeParent=1;resizeParentMax=0;resizeLast=0;collapsible=1;marginBottom=0;whiteSpace=wrap;html=1;" vertex="1" parent="1">
          <mxGeometry x="-640" y="-870" width="420" height="330" as="geometry" />
        </mxCell>
        <mxCell id="CjihOQv_C-0zfXQnCnq9-10" value="- totalWeeklyCalorieRequirementsByType:&amp;nbsp;HashSet&amp;lt;int&amp;gt;&lt;br&gt;&lt;br&gt;- hamperContents:&amp;nbsp;AvailableFood&lt;br&gt;&lt;br&gt;-&amp;nbsp;shortfall :&amp;nbsp;ArrayList&amp;lt;String&amp;gt;&lt;br&gt;&lt;br&gt;" style="text;strokeColor=none;fillColor=none;align=left;verticalAlign=top;spacingLeft=4;spacingRight=4;overflow=hidden;rotatable=0;points=[[0,0.5],[1,0.5]];portConstraint=eastwest;whiteSpace=wrap;html=1;" vertex="1" parent="CjihOQv_C-0zfXQnCnq9-9">
          <mxGeometry y="26" width="420" height="94" as="geometry" />
        </mxCell>
        <mxCell id="CjihOQv_C-0zfXQnCnq9-11" value="" style="line;strokeWidth=1;fillColor=none;align=left;verticalAlign=middle;spacingTop=-1;spacingLeft=3;spacingRight=3;rotatable=0;labelPosition=right;points=[];portConstraint=eastwest;strokeColor=inherit;" vertex="1" parent="CjihOQv_C-0zfXQnCnq9-9">
          <mxGeometry y="120" width="420" height="8" as="geometry" />
        </mxCell>
        <mxCell id="CjihOQv_C-0zfXQnCnq9-12" value="+ Hamper(Person[] clientIDs)" style="text;strokeColor=none;fillColor=none;align=left;verticalAlign=top;spacingLeft=4;spacingRight=4;overflow=hidden;rotatable=0;points=[[0,0.5],[1,0.5]];portConstraint=eastwest;whiteSpace=wrap;html=1;" vertex="1" parent="CjihOQv_C-0zfXQnCnq9-9">
          <mxGeometry y="128" width="420" height="32" as="geometry" />
        </mxCell>
        <mxCell id="r-d_q9eVbDzV2q1Ur8VG-27" value="+ Hamper(Person[] clientIDs)&lt;br&gt;+&amp;nbsp;calculateTotalRequirementsCeiling(int[] clientIDs)&lt;br&gt;+ findOptimalHamper(AvailableFood&lt;br&gt; availableFood): AvailableFood&amp;nbsp; &lt;br&gt;+ setHamperContents()&lt;br&gt;&lt;br&gt;+ getHamperContents(): AvailableFood &lt;br&gt;+ getTotalWeeklyCalorieRequirementsByType():&lt;br&gt; HashSet&lt;br&gt;&lt;br&gt;+ getShortFall(): ArrayList" style="text;strokeColor=none;fillColor=none;align=left;verticalAlign=top;spacingLeft=4;spacingRight=4;overflow=hidden;rotatable=0;points=[[0,0.5],[1,0.5]];portConstraint=eastwest;whiteSpace=wrap;html=1;" vertex="1" parent="CjihOQv_C-0zfXQnCnq9-9">
          <mxGeometry y="160" width="420" height="170" as="geometry" />
        </mxCell>
        <mxCell id="CjihOQv_C-0zfXQnCnq9-13" value="AvailableFood" style="swimlane;fontStyle=1;align=center;verticalAlign=top;childLayout=stackLayout;horizontal=1;startSize=26;horizontalStack=0;resizeParent=1;resizeParentMax=0;resizeLast=0;collapsible=1;marginBottom=0;whiteSpace=wrap;html=1;" vertex="1" parent="1">
          <mxGeometry x="-260" y="-390" width="270" height="140" as="geometry" />
        </mxCell>
        <mxCell id="CjihOQv_C-0zfXQnCnq9-14" value="+ availableFoods: LinkedList&amp;lt;FoodItem&amp;gt;" style="text;strokeColor=none;fillColor=none;align=left;verticalAlign=top;spacingLeft=4;spacingRight=4;overflow=hidden;rotatable=0;points=[[0,0.5],[1,0.5]];portConstraint=eastwest;whiteSpace=wrap;html=1;" vertex="1" parent="CjihOQv_C-0zfXQnCnq9-13">
          <mxGeometry y="26" width="270" height="44" as="geometry" />
        </mxCell>
        <mxCell id="CjihOQv_C-0zfXQnCnq9-15" value="" style="line;strokeWidth=1;fillColor=none;align=left;verticalAlign=middle;spacingTop=-1;spacingLeft=3;spacingRight=3;rotatable=0;labelPosition=right;points=[];portConstraint=eastwest;strokeColor=inherit;" vertex="1" parent="CjihOQv_C-0zfXQnCnq9-13">
          <mxGeometry y="70" width="270" height="8" as="geometry" />
        </mxCell>
        <mxCell id="CjihOQv_C-0zfXQnCnq9-16" value="+ getAvailableFoods(): LinkedList&amp;nbsp;&lt;br&gt;+ removeFoodItem(FoodItem food) &lt;br&gt;+ removeFoodItem(int foodID)" style="text;strokeColor=none;fillColor=none;align=left;verticalAlign=top;spacingLeft=4;spacingRight=4;overflow=hidden;rotatable=0;points=[[0,0.5],[1,0.5]];portConstraint=eastwest;whiteSpace=wrap;html=1;" vertex="1" parent="CjihOQv_C-0zfXQnCnq9-13">
          <mxGeometry y="78" width="270" height="62" as="geometry" />
        </mxCell>
        <mxCell id="5vHbgtkAKjBmpQbh6Rdm-15" value="&lt;br&gt;&amp;lt;&amp;lt; enumeration &amp;gt;&amp;gt;&lt;br&gt;NutrientTypes" style="swimlane;fontStyle=0;childLayout=stackLayout;horizontal=1;startSize=50;fillColor=none;horizontalStack=0;resizeParent=1;resizeParentMax=0;resizeLast=0;collapsible=1;marginBottom=0;whiteSpace=wrap;html=1;" vertex="1" parent="1">
          <mxGeometry x="340" y="-650" width="270" height="140" as="geometry" />
        </mxCell>
        <mxCell id="5vHbgtkAKjBmpQbh6Rdm-18" value="wholeGrains&lt;br&gt;FruitsAndVeggies&lt;br&gt;Protein&lt;br&gt;Other" style="text;strokeColor=none;fillColor=none;align=left;verticalAlign=top;spacingLeft=4;spacingRight=4;overflow=hidden;rotatable=0;points=[[0,0.5],[1,0.5]];portConstraint=eastwest;whiteSpace=wrap;html=1;" vertex="1" parent="5vHbgtkAKjBmpQbh6Rdm-15">
          <mxGeometry y="50" width="270" height="90" as="geometry" />
        </mxCell>
        <mxCell id="r-d_q9eVbDzV2q1Ur8VG-28" style="edgeStyle=orthogonalEdgeStyle;rounded=0;orthogonalLoop=1;jettySize=auto;html=1;exitX=0;exitY=0.5;exitDx=0;exitDy=0;entryX=0.5;entryY=0;entryDx=0;entryDy=0;dashed=1;" edge="1" parent="1" source="CjihOQv_C-0zfXQnCnq9-12" target="5vHbgtkAKjBmpQbh6Rdm-1">
          <mxGeometry relative="1" as="geometry">
            <Array as="points">
              <mxPoint x="-660" y="-726" />
              <mxPoint x="-660" y="-510" />
              <mxPoint x="-440" y="-510" />
            </Array>
          </mxGeometry>
        </mxCell>
        <mxCell id="r-d_q9eVbDzV2q1Ur8VG-29" style="edgeStyle=orthogonalEdgeStyle;rounded=0;orthogonalLoop=1;jettySize=auto;html=1;exitX=1;exitY=0.5;exitDx=0;exitDy=0;entryX=0.5;entryY=0;entryDx=0;entryDy=0;endArrow=diamondThin;endFill=1;" edge="1" parent="1" source="CjihOQv_C-0zfXQnCnq9-10" target="CjihOQv_C-0zfXQnCnq9-13">
          <mxGeometry relative="1" as="geometry" />
        </mxCell>
        <mxCell id="r-d_q9eVbDzV2q1Ur8VG-30" style="edgeStyle=orthogonalEdgeStyle;rounded=0;orthogonalLoop=1;jettySize=auto;html=1;exitX=1;exitY=0.5;exitDx=0;exitDy=0;entryX=0.5;entryY=0;entryDx=0;entryDy=0;endArrow=none;endFill=0;startArrow=diamond;startFill=1;" edge="1" parent="1" source="CjihOQv_C-0zfXQnCnq9-14" target="r-d_q9eVbDzV2q1Ur8VG-5">
          <mxGeometry relative="1" as="geometry">
            <Array as="points">
              <mxPoint x="30" y="-342" />
              <mxPoint x="30" y="-437" />
              <mxPoint x="-80" y="-437" />
              <mxPoint x="-80" y="-930" />
              <mxPoint x="115" y="-930" />
            </Array>
          </mxGeometry>
        </mxCell>
        <mxCell id="r-d_q9eVbDzV2q1Ur8VG-31" style="edgeStyle=orthogonalEdgeStyle;rounded=0;orthogonalLoop=1;jettySize=auto;html=1;exitX=1;exitY=0.5;exitDx=0;exitDy=0;entryX=0.5;entryY=0;entryDx=0;entryDy=0;" edge="1" parent="1" source="r-d_q9eVbDzV2q1Ur8VG-24" target="5vHbgtkAKjBmpQbh6Rdm-15">
          <mxGeometry relative="1" as="geometry">
            <Array as="points">
              <mxPoint x="640" y="-255" />
              <mxPoint x="640" y="-670" />
              <mxPoint x="475" y="-670" />
            </Array>
          </mxGeometry>
        </mxCell>
        <mxCell id="r-d_q9eVbDzV2q1Ur8VG-32" style="edgeStyle=orthogonalEdgeStyle;rounded=0;orthogonalLoop=1;jettySize=auto;html=1;exitX=1;exitY=0.5;exitDx=0;exitDy=0;entryX=0.5;entryY=0;entryDx=0;entryDy=0;" edge="1" parent="1" source="CjihOQv_C-0zfXQnCnq9-12" target="r-d_q9eVbDzV2q1Ur8VG-18">
          <mxGeometry relative="1" as="geometry">
            <Array as="points">
              <mxPoint x="-170" y="-726" />
              <mxPoint x="-170" y="-480" />
              <mxPoint x="295" y="-480" />
            </Array>
          </mxGeometry>
        </mxCell>
      </root>
    </mxGraphModel>
  </diagram>
</mxfile>
